# xmcd
#
# Track frame offsets:
#	150
#	19676
#	36231
#	51803
#	64204
#	81038
#	96742
#	107473
#	143721
#	154606
#	171175
#	187032
#	205386
#
# Disc length: 3070 seconds
#
# Revision: 0
# Processed by: cddbd v1.5.1PL0 Copyright (c) Steve Scherf et al.
# Submitted via: EasyCDDAExtractor 4.5.0.2
#
DISCID=b20bfc0d
DTITLE=Blues Lee - In the crack of the map
DYEAR=2003
DGENRE=Blues
TTITLE0=Baby King Kong
TTITLE1=If the Phone don't ring
TTITLE2=Laylo
TTITLE3=Dolphin's Swing
TTITLE4=Cross that Line
TTITLE5=Friendly Advice
TTITLE6=Gotta Go
TTITLE7=The Levee
TTITLE8=Earlene
TTITLE9=That Thing
TTITLE10=Tell Me why
TTITLE11=The Crime
TTITLE12=Blame It On The Sun
EXTD=
EXTT0=
EXTT1=
EXTT2=
EXTT3=
EXTT4=
EXTT5=
EXTT6=
EXTT7=
EXTT8=
EXTT9=
EXTT10=
EXTT11=
EXTT12=
PLAYORDER=
